<svg width="180" height="216" viewBox="0 0 180 216" fill="none" xmlns="http://www.w3.org/2000/svg">
<path d="M5 62.4371V152.596C5 156.098 6.83221 159.345 9.83013 161.156L85.2272 206.693C88.4199 208.621 92.4205 208.612 95.6047 206.67L170.208 161.162C173.184 159.347 175 156.112 175 152.625V62.4082C175 58.8955 173.157 55.6405 170.145 53.8332L95.5423 9.07167C92.389 7.17966 88.4516 7.17104 85.29 9.04923L9.89264 53.8398C6.85928 55.6418 5 58.9089 5 62.4371Z" fill="#696BC9"/>
<path d="M173.208 59.7882C-78.1283 115.948 176.857 100.682 93 207.5L169.653 161.414C172.66 159.606 174.5 156.353 174.5 152.844L174.5 60.7474C174.5 60.1074 173.833 59.6487 173.208 59.7882Z" fill="#282D34" stroke="#282D34"/>
</svg>
